<?xml version="1.0" encoding="utf-8" standalone="no"?>
<!DOCTYPE svg PUBLIC "-//W3C//DTD SVG 1.1//EN"
  "http://www.w3.org/Graphics/SVG/1.1/DTD/svg11.dtd">
<!-- Created with matplotlib (https://matplotlib.org/) -->
<svg height="345.6pt" version="1.1" viewBox="0 0 460.8 345.6" width="460.8pt" xmlns="http://www.w3.org/2000/svg" xmlns:xlink="http://www.w3.org/1999/xlink">
 <defs>
  <style type="text/css">
*{stroke-linecap:butt;stroke-linejoin:round;}
  </style>
 </defs>
 <g id="figure_1">
  <g id="patch_1">
   <path d="M 0 345.6 
L 460.8 345.6 
L 460.8 0 
L 0 0 
z
" style="fill:#ffffff;"/>
  </g>
  <g id="axes_1">
   <g id="patch_2">
    <path d="M 46.175 295.8 
L 220.679474 295.8 
L 220.679474 10.8 
L 46.175 10.8 
z
" style="fill:#ffffff;"/>
   </g>
   <g id="matplotlib.axis_1">
    <g id="xtick_1">
     <g id="line2d_1">
      <defs>
       <path d="M 0 0 
L 0 3.5 
" id="m7e3a923dcc" style="stroke:#000000;stroke-width:0.8;"/>
      </defs>
      <g>
       <use style="stroke:#000000;stroke-width:0.8;" x="54.107022" xlink:href="#m7e3a923dcc" y="295.8"/>
      </g>
     </g>
     <g id="text_1">
      <!-- 0 -->
      <defs>
       <path d="M 31.78125 66.40625 
Q 24.171875 66.40625 20.328125 58.90625 
Q 16.5 51.421875 16.5 36.375 
Q 16.5 21.390625 20.328125 13.890625 
Q 24.171875 6.390625 31.78125 6.390625 
Q 39.453125 6.390625 43.28125 13.890625 
Q 47.125 21.390625 47.125 36.375 
Q 47.125 51.421875 43.28125 58.90625 
Q 39.453125 66.40625 31.78125 66.40625 
z
M 31.78125 74.21875 
Q 44.046875 74.21875 50.515625 64.515625 
Q 56.984375 54.828125 56.984375 36.375 
Q 56.984375 17.96875 50.515625 8.265625 
Q 44.046875 -1.421875 31.78125 -1.421875 
Q 19.53125 -1.421875 13.0625 8.265625 
Q 6.59375 17.96875 6.59375 36.375 
Q 6.59375 54.828125 13.0625 64.515625 
Q 19.53125 74.21875 31.78125 74.21875 
z
" id="DejaVuSans-48"/>
      </defs>
      <g transform="translate(50.925772 310.398438)scale(0.1 -0.1)">
       <use xlink:href="#DejaVuSans-48"/>
      </g>
     </g>
    </g>
    <g id="xtick_2">
     <g id="line2d_2">
      <g>
       <use style="stroke:#000000;stroke-width:0.8;" x="107.004798" xlink:href="#m7e3a923dcc" y="295.8"/>
      </g>
     </g>
     <g id="text_2">
      <!-- 1 -->
      <defs>
       <path d="M 12.40625 8.296875 
L 28.515625 8.296875 
L 28.515625 63.921875 
L 10.984375 60.40625 
L 10.984375 69.390625 
L 28.421875 72.90625 
L 38.28125 72.90625 
L 38.28125 8.296875 
L 54.390625 8.296875 
L 54.390625 0 
L 12.40625 0 
z
" id="DejaVuSans-49"/>
      </defs>
      <g transform="translate(103.823548 310.398438)scale(0.1 -0.1)">
       <use xlink:href="#DejaVuSans-49"/>
      </g>
     </g>
    </g>
    <g id="xtick_3">
     <g id="line2d_3">
      <g>
       <use style="stroke:#000000;stroke-width:0.8;" x="159.902574" xlink:href="#m7e3a923dcc" y="295.8"/>
      </g>
     </g>
     <g id="text_3">
      <!-- 2 -->
      <defs>
       <path d="M 19.1875 8.296875 
L 53.609375 8.296875 
L 53.609375 0 
L 7.328125 0 
L 7.328125 8.296875 
Q 12.9375 14.109375 22.625 23.890625 
Q 32.328125 33.6875 34.8125 36.53125 
Q 39.546875 41.84375 41.421875 45.53125 
Q 43.3125 49.21875 43.3125 52.78125 
Q 43.3125 58.59375 39.234375 62.25 
Q 35.15625 65.921875 28.609375 65.921875 
Q 23.96875 65.921875 18.8125 64.3125 
Q 13.671875 62.703125 7.8125 59.421875 
L 7.8125 69.390625 
Q 13.765625 71.78125 18.9375 73 
Q 24.125 74.21875 28.421875 74.21875 
Q 39.75 74.21875 46.484375 68.546875 
Q 53.21875 62.890625 53.21875 53.421875 
Q 53.21875 48.921875 51.53125 44.890625 
Q 49.859375 40.875 45.40625 35.40625 
Q 44.1875 33.984375 37.640625 27.21875 
Q 31.109375 20.453125 19.1875 8.296875 
z
" id="DejaVuSans-50"/>
      </defs>
      <g transform="translate(156.721324 310.398438)scale(0.1 -0.1)">
       <use xlink:href="#DejaVuSans-50"/>
      </g>
     </g>
    </g>
    <g id="xtick_4">
     <g id="line2d_4">
      <g>
       <use style="stroke:#000000;stroke-width:0.8;" x="212.800351" xlink:href="#m7e3a923dcc" y="295.8"/>
      </g>
     </g>
     <g id="text_4">
      <!-- 3 -->
      <defs>
       <path d="M 40.578125 39.3125 
Q 47.65625 37.796875 51.625 33 
Q 55.609375 28.21875 55.609375 21.1875 
Q 55.609375 10.40625 48.1875 4.484375 
Q 40.765625 -1.421875 27.09375 -1.421875 
Q 22.515625 -1.421875 17.65625 -0.515625 
Q 12.796875 0.390625 7.625 2.203125 
L 7.625 11.71875 
Q 11.71875 9.328125 16.59375 8.109375 
Q 21.484375 6.890625 26.8125 6.890625 
Q 36.078125 6.890625 40.9375 10.546875 
Q 45.796875 14.203125 45.796875 21.1875 
Q 45.796875 27.640625 41.28125 31.265625 
Q 36.765625 34.90625 28.71875 34.90625 
L 20.21875 34.90625 
L 20.21875 43.015625 
L 29.109375 43.015625 
Q 36.375 43.015625 40.234375 45.921875 
Q 44.09375 48.828125 44.09375 54.296875 
Q 44.09375 59.90625 40.109375 62.90625 
Q 36.140625 65.921875 28.71875 65.921875 
Q 24.65625 65.921875 20.015625 65.03125 
Q 15.375 64.15625 9.8125 62.3125 
L 9.8125 71.09375 
Q 15.4375 72.65625 20.34375 73.4375 
Q 25.25 74.21875 29.59375 74.21875 
Q 40.828125 74.21875 47.359375 69.109375 
Q 53.90625 64.015625 53.90625 55.328125 
Q 53.90625 49.265625 50.4375 45.09375 
Q 46.96875 40.921875 40.578125 39.3125 
z
" id="DejaVuSans-51"/>
      </defs>
      <g transform="translate(209.619101 310.398438)scale(0.1 -0.1)">
       <use xlink:href="#DejaVuSans-51"/>
      </g>
     </g>
    </g>
    <g id="text_5">
     <!-- Current (A) -->
     <defs>
      <path d="M 64.40625 67.28125 
L 64.40625 56.890625 
Q 59.421875 61.53125 53.78125 63.8125 
Q 48.140625 66.109375 41.796875 66.109375 
Q 29.296875 66.109375 22.65625 58.46875 
Q 16.015625 50.828125 16.015625 36.375 
Q 16.015625 21.96875 22.65625 14.328125 
Q 29.296875 6.6875 41.796875 6.6875 
Q 48.140625 6.6875 53.78125 8.984375 
Q 59.421875 11.28125 64.40625 15.921875 
L 64.40625 5.609375 
Q 59.234375 2.09375 53.4375 0.328125 
Q 47.65625 -1.421875 41.21875 -1.421875 
Q 24.65625 -1.421875 15.125 8.703125 
Q 5.609375 18.84375 5.609375 36.375 
Q 5.609375 53.953125 15.125 64.078125 
Q 24.65625 74.21875 41.21875 74.21875 
Q 47.75 74.21875 53.53125 72.484375 
Q 59.328125 70.75 64.40625 67.28125 
z
" id="DejaVuSans-67"/>
      <path d="M 8.5 21.578125 
L 8.5 54.6875 
L 17.484375 54.6875 
L 17.484375 21.921875 
Q 17.484375 14.15625 20.5 10.265625 
Q 23.53125 6.390625 29.59375 6.390625 
Q 36.859375 6.390625 41.078125 11.03125 
Q 45.3125 15.671875 45.3125 23.6875 
L 45.3125 54.6875 
L 54.296875 54.6875 
L 54.296875 0 
L 45.3125 0 
L 45.3125 8.40625 
Q 42.046875 3.421875 37.71875 1 
Q 33.40625 -1.421875 27.6875 -1.421875 
Q 18.265625 -1.421875 13.375 4.4375 
Q 8.5 10.296875 8.5 21.578125 
z
M 31.109375 56 
z
" id="DejaVuSans-117"/>
      <path d="M 41.109375 46.296875 
Q 39.59375 47.171875 37.8125 47.578125 
Q 36.03125 48 33.890625 48 
Q 26.265625 48 22.1875 43.046875 
Q 18.109375 38.09375 18.109375 28.8125 
L 18.109375 0 
L 9.078125 0 
L 9.078125 54.6875 
L 18.109375 54.6875 
L 18.109375 46.1875 
Q 20.953125 51.171875 25.484375 53.578125 
Q 30.03125 56 36.53125 56 
Q 37.453125 56 38.578125 55.875 
Q 39.703125 55.765625 41.0625 55.515625 
z
" id="DejaVuSans-114"/>
      <path d="M 56.203125 29.59375 
L 56.203125 25.203125 
L 14.890625 25.203125 
Q 15.484375 15.921875 20.484375 11.0625 
Q 25.484375 6.203125 34.421875 6.203125 
Q 39.59375 6.203125 44.453125 7.46875 
Q 49.3125 8.734375 54.109375 11.28125 
L 54.109375 2.78125 
Q 49.265625 0.734375 44.1875 -0.34375 
Q 39.109375 -1.421875 33.890625 -1.421875 
Q 20.796875 -1.421875 13.15625 6.1875 
Q 5.515625 13.8125 5.515625 26.8125 
Q 5.515625 40.234375 12.765625 48.109375 
Q 20.015625 56 32.328125 56 
Q 43.359375 56 49.78125 48.890625 
Q 56.203125 41.796875 56.203125 29.59375 
z
M 47.21875 32.234375 
Q 47.125 39.59375 43.09375 43.984375 
Q 39.0625 48.390625 32.421875 48.390625 
Q 24.90625 48.390625 20.390625 44.140625 
Q 15.875 39.890625 15.1875 32.171875 
z
" id="DejaVuSans-101"/>
      <path d="M 54.890625 33.015625 
L 54.890625 0 
L 45.90625 0 
L 45.90625 32.71875 
Q 45.90625 40.484375 42.875 44.328125 
Q 39.84375 48.1875 33.796875 48.1875 
Q 26.515625 48.1875 22.3125 43.546875 
Q 18.109375 38.921875 18.109375 30.90625 
L 18.109375 0 
L 9.078125 0 
L 9.078125 54.6875 
L 18.109375 54.6875 
L 18.109375 46.1875 
Q 21.34375 51.125 25.703125 53.5625 
Q 30.078125 56 35.796875 56 
Q 45.21875 56 50.046875 50.171875 
Q 54.890625 44.34375 54.890625 33.015625 
z
" id="DejaVuSans-110"/>
      <path d="M 18.3125 70.21875 
L 18.3125 54.6875 
L 36.8125 54.6875 
L 36.8125 47.703125 
L 18.3125 47.703125 
L 18.3125 18.015625 
Q 18.3125 11.328125 20.140625 9.421875 
Q 21.96875 7.515625 27.59375 7.515625 
L 36.8125 7.515625 
L 36.8125 0 
L 27.59375 0 
Q 17.1875 0 13.234375 3.875 
Q 9.28125 7.765625 9.28125 18.015625 
L 9.28125 47.703125 
L 2.6875 47.703125 
L 2.6875 54.6875 
L 9.28125 54.6875 
L 9.28125 70.21875 
z
" id="DejaVuSans-116"/>
      <path id="DejaVuSans-32"/>
      <path d="M 31 75.875 
Q 24.46875 64.65625 21.28125 53.65625 
Q 18.109375 42.671875 18.109375 31.390625 
Q 18.109375 20.125 21.3125 9.0625 
Q 24.515625 -2 31 -13.1875 
L 23.1875 -13.1875 
Q 15.875 -1.703125 12.234375 9.375 
Q 8.59375 20.453125 8.59375 31.390625 
Q 8.59375 42.28125 12.203125 53.3125 
Q 15.828125 64.359375 23.1875 75.875 
z
" id="DejaVuSans-40"/>
      <path d="M 34.1875 63.1875 
L 20.796875 26.90625 
L 47.609375 26.90625 
z
M 28.609375 72.90625 
L 39.796875 72.90625 
L 67.578125 0 
L 57.328125 0 
L 50.6875 18.703125 
L 17.828125 18.703125 
L 11.1875 0 
L 0.78125 0 
z
" id="DejaVuSans-65"/>
      <path d="M 8.015625 75.875 
L 15.828125 75.875 
Q 23.140625 64.359375 26.78125 53.3125 
Q 30.421875 42.28125 30.421875 31.390625 
Q 30.421875 20.453125 26.78125 9.375 
Q 23.140625 -1.703125 15.828125 -13.1875 
L 8.015625 -13.1875 
Q 14.5 -2 17.703125 9.0625 
Q 20.90625 20.125 20.90625 31.390625 
Q 20.90625 42.671875 17.703125 53.65625 
Q 14.5 64.65625 8.015625 75.875 
z
" id="DejaVuSans-41"/>
     </defs>
     <g transform="translate(83.233956 330.155312)scale(0.18 -0.18)">
      <use xlink:href="#DejaVuSans-67"/>
      <use x="69.824219" xlink:href="#DejaVuSans-117"/>
      <use x="133.203125" xlink:href="#DejaVuSans-114"/>
      <use x="174.300781" xlink:href="#DejaVuSans-114"/>
      <use x="215.382812" xlink:href="#DejaVuSans-101"/>
      <use x="276.90625" xlink:href="#DejaVuSans-110"/>
      <use x="340.285156" xlink:href="#DejaVuSans-116"/>
      <use x="379.494141" xlink:href="#DejaVuSans-32"/>
      <use x="411.28125" xlink:href="#DejaVuSans-40"/>
      <use x="450.294922" xlink:href="#DejaVuSans-65"/>
      <use x="518.703125" xlink:href="#DejaVuSans-41"/>
     </g>
    </g>
   </g>
   <g id="matplotlib.axis_2">
    <g id="ytick_1">
     <g id="line2d_5">
      <defs>
       <path d="M 0 0 
L -3.5 0 
" id="maf56f90f4a" style="stroke:#000000;stroke-width:0.8;"/>
      </defs>
      <g>
       <use style="stroke:#000000;stroke-width:0.8;" x="46.175" xlink:href="#maf56f90f4a" y="256.936364"/>
      </g>
     </g>
     <g id="text_6">
      <!-- 0 -->
      <g transform="translate(32.8125 260.735582)scale(0.1 -0.1)">
       <use xlink:href="#DejaVuSans-48"/>
      </g>
     </g>
    </g>
    <g id="ytick_2">
     <g id="line2d_6">
      <g>
       <use style="stroke:#000000;stroke-width:0.8;" x="46.175" xlink:href="#maf56f90f4a" y="205.118182"/>
      </g>
     </g>
     <g id="text_7">
      <!-- 1 -->
      <g transform="translate(32.8125 208.917401)scale(0.1 -0.1)">
       <use xlink:href="#DejaVuSans-49"/>
      </g>
     </g>
    </g>
    <g id="ytick_3">
     <g id="line2d_7">
      <g>
       <use style="stroke:#000000;stroke-width:0.8;" x="46.175" xlink:href="#maf56f90f4a" y="153.3"/>
      </g>
     </g>
     <g id="text_8">
      <!-- 2 -->
      <g transform="translate(32.8125 157.099219)scale(0.1 -0.1)">
       <use xlink:href="#DejaVuSans-50"/>
      </g>
     </g>
    </g>
    <g id="ytick_4">
     <g id="line2d_8">
      <g>
       <use style="stroke:#000000;stroke-width:0.8;" x="46.175" xlink:href="#maf56f90f4a" y="101.481818"/>
      </g>
     </g>
     <g id="text_9">
      <!-- 3 -->
      <g transform="translate(32.8125 105.281037)scale(0.1 -0.1)">
       <use xlink:href="#DejaVuSans-51"/>
      </g>
     </g>
    </g>
    <g id="ytick_5">
     <g id="line2d_9">
      <g>
       <use style="stroke:#000000;stroke-width:0.8;" x="46.175" xlink:href="#maf56f90f4a" y="49.663636"/>
      </g>
     </g>
     <g id="text_10">
      <!-- 4 -->
      <defs>
       <path d="M 37.796875 64.3125 
L 12.890625 25.390625 
L 37.796875 25.390625 
z
M 35.203125 72.90625 
L 47.609375 72.90625 
L 47.609375 25.390625 
L 58.015625 25.390625 
L 58.015625 17.1875 
L 47.609375 17.1875 
L 47.609375 0 
L 37.796875 0 
L 37.796875 17.1875 
L 4.890625 17.1875 
L 4.890625 26.703125 
z
" id="DejaVuSans-52"/>
      </defs>
      <g transform="translate(32.8125 53.462855)scale(0.1 -0.1)">
       <use xlink:href="#DejaVuSans-52"/>
      </g>
     </g>
    </g>
    <g id="text_11">
     <!-- Angle (degrees) -->
     <defs>
      <path d="M 45.40625 27.984375 
Q 45.40625 37.75 41.375 43.109375 
Q 37.359375 48.484375 30.078125 48.484375 
Q 22.859375 48.484375 18.828125 43.109375 
Q 14.796875 37.75 14.796875 27.984375 
Q 14.796875 18.265625 18.828125 12.890625 
Q 22.859375 7.515625 30.078125 7.515625 
Q 37.359375 7.515625 41.375 12.890625 
Q 45.40625 18.265625 45.40625 27.984375 
z
M 54.390625 6.78125 
Q 54.390625 -7.171875 48.1875 -13.984375 
Q 42 -20.796875 29.203125 -20.796875 
Q 24.46875 -20.796875 20.265625 -20.09375 
Q 16.0625 -19.390625 12.109375 -17.921875 
L 12.109375 -9.1875 
Q 16.0625 -11.328125 19.921875 -12.34375 
Q 23.78125 -13.375 27.78125 -13.375 
Q 36.625 -13.375 41.015625 -8.765625 
Q 45.40625 -4.15625 45.40625 5.171875 
L 45.40625 9.625 
Q 42.625 4.78125 38.28125 2.390625 
Q 33.9375 0 27.875 0 
Q 17.828125 0 11.671875 7.65625 
Q 5.515625 15.328125 5.515625 27.984375 
Q 5.515625 40.671875 11.671875 48.328125 
Q 17.828125 56 27.875 56 
Q 33.9375 56 38.28125 53.609375 
Q 42.625 51.21875 45.40625 46.390625 
L 45.40625 54.6875 
L 54.390625 54.6875 
z
" id="DejaVuSans-103"/>
      <path d="M 9.421875 75.984375 
L 18.40625 75.984375 
L 18.40625 0 
L 9.421875 0 
z
" id="DejaVuSans-108"/>
      <path d="M 45.40625 46.390625 
L 45.40625 75.984375 
L 54.390625 75.984375 
L 54.390625 0 
L 45.40625 0 
L 45.40625 8.203125 
Q 42.578125 3.328125 38.25 0.953125 
Q 33.9375 -1.421875 27.875 -1.421875 
Q 17.96875 -1.421875 11.734375 6.484375 
Q 5.515625 14.40625 5.515625 27.296875 
Q 5.515625 40.1875 11.734375 48.09375 
Q 17.96875 56 27.875 56 
Q 33.9375 56 38.25 53.625 
Q 42.578125 51.265625 45.40625 46.390625 
z
M 14.796875 27.296875 
Q 14.796875 17.390625 18.875 11.75 
Q 22.953125 6.109375 30.078125 6.109375 
Q 37.203125 6.109375 41.296875 11.75 
Q 45.40625 17.390625 45.40625 27.296875 
Q 45.40625 37.203125 41.296875 42.84375 
Q 37.203125 48.484375 30.078125 48.484375 
Q 22.953125 48.484375 18.875 42.84375 
Q 14.796875 37.203125 14.796875 27.296875 
z
" id="DejaVuSans-100"/>
      <path d="M 44.28125 53.078125 
L 44.28125 44.578125 
Q 40.484375 46.53125 36.375 47.5 
Q 32.28125 48.484375 27.875 48.484375 
Q 21.1875 48.484375 17.84375 46.4375 
Q 14.5 44.390625 14.5 40.28125 
Q 14.5 37.15625 16.890625 35.375 
Q 19.28125 33.59375 26.515625 31.984375 
L 29.59375 31.296875 
Q 39.15625 29.25 43.1875 25.515625 
Q 47.21875 21.78125 47.21875 15.09375 
Q 47.21875 7.46875 41.1875 3.015625 
Q 35.15625 -1.421875 24.609375 -1.421875 
Q 20.21875 -1.421875 15.453125 -0.5625 
Q 10.6875 0.296875 5.421875 2 
L 5.421875 11.28125 
Q 10.40625 8.6875 15.234375 7.390625 
Q 20.0625 6.109375 24.8125 6.109375 
Q 31.15625 6.109375 34.5625 8.28125 
Q 37.984375 10.453125 37.984375 14.40625 
Q 37.984375 18.0625 35.515625 20.015625 
Q 33.0625 21.96875 24.703125 23.78125 
L 21.578125 24.515625 
Q 13.234375 26.265625 9.515625 29.90625 
Q 5.8125 33.546875 5.8125 39.890625 
Q 5.8125 47.609375 11.28125 51.796875 
Q 16.75 56 26.8125 56 
Q 31.78125 56 36.171875 55.265625 
Q 40.578125 54.546875 44.28125 53.078125 
z
" id="DejaVuSans-115"/>
     </defs>
     <g transform="translate(25.069062 225.22125)rotate(-90)scale(0.18 -0.18)">
      <use xlink:href="#DejaVuSans-65"/>
      <use x="68.408203" xlink:href="#DejaVuSans-110"/>
      <use x="131.787109" xlink:href="#DejaVuSans-103"/>
      <use x="195.263672" xlink:href="#DejaVuSans-108"/>
      <use x="223.046875" xlink:href="#DejaVuSans-101"/>
      <use x="284.570312" xlink:href="#DejaVuSans-32"/>
      <use x="316.357422" xlink:href="#DejaVuSans-40"/>
      <use x="355.371094" xlink:href="#DejaVuSans-100"/>
      <use x="418.847656" xlink:href="#DejaVuSans-101"/>
      <use x="480.371094" xlink:href="#DejaVuSans-103"/>
      <use x="543.847656" xlink:href="#DejaVuSans-114"/>
      <use x="584.929688" xlink:href="#DejaVuSans-101"/>
      <use x="646.453125" xlink:href="#DejaVuSans-101"/>
      <use x="707.976562" xlink:href="#DejaVuSans-115"/>
      <use x="760.076172" xlink:href="#DejaVuSans-41"/>
     </g>
    </g>
   </g>
   <g id="LineCollection_1">
    <path clip-path="url(#p60584fe65c)" d="M 54.107022 282.845455 
L 54.107022 231.027273 
" style="fill:none;stroke:#ff0000;stroke-width:1.5;"/>
    <path clip-path="url(#p60584fe65c)" d="M 80.291421 282.845455 
L 80.291421 231.027273 
" style="fill:none;stroke:#ff0000;stroke-width:1.5;"/>
    <path clip-path="url(#p60584fe65c)" d="M 107.956958 231.027273 
L 107.956958 179.209091 
" style="fill:none;stroke:#ff0000;stroke-width:1.5;"/>
    <path clip-path="url(#p60584fe65c)" d="M 133.612379 179.209091 
L 133.612379 127.390909 
" style="fill:none;stroke:#ff0000;stroke-width:1.5;"/>
    <path clip-path="url(#p60584fe65c)" d="M 160.272859 179.209091 
L 160.272859 127.390909 
" style="fill:none;stroke:#ff0000;stroke-width:1.5;"/>
    <path clip-path="url(#p60584fe65c)" d="M 186.88044 127.390909 
L 186.88044 75.572727 
" style="fill:none;stroke:#ff0000;stroke-width:1.5;"/>
    <path clip-path="url(#p60584fe65c)" d="M 212.747453 75.572727 
L 212.747453 23.754545 
" style="fill:none;stroke:#ff0000;stroke-width:1.5;"/>
   </g>
   <g id="line2d_10">
    <defs>
     <path d="M 2 0 
L -2 -0 
" id="m42dec3c3bc" style="stroke:#ff0000;"/>
    </defs>
    <g clip-path="url(#p60584fe65c)">
     <use style="fill:#ff0000;stroke:#ff0000;" x="54.107022" xlink:href="#m42dec3c3bc" y="282.845455"/>
     <use style="fill:#ff0000;stroke:#ff0000;" x="80.291421" xlink:href="#m42dec3c3bc" y="282.845455"/>
     <use style="fill:#ff0000;stroke:#ff0000;" x="107.956958" xlink:href="#m42dec3c3bc" y="231.027273"/>
     <use style="fill:#ff0000;stroke:#ff0000;" x="133.612379" xlink:href="#m42dec3c3bc" y="179.209091"/>
     <use style="fill:#ff0000;stroke:#ff0000;" x="160.272859" xlink:href="#m42dec3c3bc" y="179.209091"/>
     <use style="fill:#ff0000;stroke:#ff0000;" x="186.88044" xlink:href="#m42dec3c3bc" y="127.390909"/>
     <use style="fill:#ff0000;stroke:#ff0000;" x="212.747453" xlink:href="#m42dec3c3bc" y="75.572727"/>
    </g>
   </g>
   <g id="line2d_11">
    <g clip-path="url(#p60584fe65c)">
     <use style="fill:#ff0000;stroke:#ff0000;" x="54.107022" xlink:href="#m42dec3c3bc" y="231.027273"/>
     <use style="fill:#ff0000;stroke:#ff0000;" x="80.291421" xlink:href="#m42dec3c3bc" y="231.027273"/>
     <use style="fill:#ff0000;stroke:#ff0000;" x="107.956958" xlink:href="#m42dec3c3bc" y="179.209091"/>
     <use style="fill:#ff0000;stroke:#ff0000;" x="133.612379" xlink:href="#m42dec3c3bc" y="127.390909"/>
     <use style="fill:#ff0000;stroke:#ff0000;" x="160.272859" xlink:href="#m42dec3c3bc" y="127.390909"/>
     <use style="fill:#ff0000;stroke:#ff0000;" x="186.88044" xlink:href="#m42dec3c3bc" y="75.572727"/>
     <use style="fill:#ff0000;stroke:#ff0000;" x="212.747453" xlink:href="#m42dec3c3bc" y="23.754545"/>
    </g>
   </g>
   <g id="line2d_12">
    <defs>
     <path d="M 0 1.5 
C 0.397805 1.5 0.77937 1.341951 1.06066 1.06066 
C 1.341951 0.77937 1.5 0.397805 1.5 0 
C 1.5 -0.397805 1.341951 -0.77937 1.06066 -1.06066 
C 0.77937 -1.341951 0.397805 -1.5 0 -1.5 
C -0.397805 -1.5 -0.77937 -1.341951 -1.06066 -1.06066 
C -1.341951 -0.77937 -1.5 -0.397805 -1.5 0 
C -1.5 0.397805 -1.341951 0.77937 -1.06066 1.06066 
C -0.77937 1.341951 -0.397805 1.5 0 1.5 
z
" id="m9ea1a517b0" style="stroke:#0000ff;"/>
    </defs>
    <g clip-path="url(#p60584fe65c)">
     <use style="fill:#0000ff;stroke:#0000ff;" x="54.107022" xlink:href="#m9ea1a517b0" y="256.936364"/>
     <use style="fill:#0000ff;stroke:#0000ff;" x="80.291421" xlink:href="#m9ea1a517b0" y="256.936364"/>
     <use style="fill:#0000ff;stroke:#0000ff;" x="107.956958" xlink:href="#m9ea1a517b0" y="205.118182"/>
     <use style="fill:#0000ff;stroke:#0000ff;" x="133.612379" xlink:href="#m9ea1a517b0" y="153.3"/>
     <use style="fill:#0000ff;stroke:#0000ff;" x="160.272859" xlink:href="#m9ea1a517b0" y="153.3"/>
     <use style="fill:#0000ff;stroke:#0000ff;" x="186.88044" xlink:href="#m9ea1a517b0" y="101.481818"/>
     <use style="fill:#0000ff;stroke:#0000ff;" x="212.747453" xlink:href="#m9ea1a517b0" y="49.663636"/>
    </g>
   </g>
   <g id="patch_3">
    <path d="M 46.175 295.8 
L 46.175 10.8 
" style="fill:none;stroke:#000000;stroke-linecap:square;stroke-linejoin:miter;stroke-width:0.8;"/>
   </g>
   <g id="patch_4">
    <path d="M 220.679474 295.8 
L 220.679474 10.8 
" style="fill:none;stroke:#000000;stroke-linecap:square;stroke-linejoin:miter;stroke-width:0.8;"/>
   </g>
   <g id="patch_5">
    <path d="M 46.175 295.8 
L 220.679474 295.8 
" style="fill:none;stroke:#000000;stroke-linecap:square;stroke-linejoin:miter;stroke-width:0.8;"/>
   </g>
   <g id="patch_6">
    <path d="M 46.175 10.8 
L 220.679474 10.8 
" style="fill:none;stroke:#000000;stroke-linecap:square;stroke-linejoin:miter;stroke-width:0.8;"/>
   </g>
  </g>
  <g id="axes_2">
   <g id="patch_7">
    <path d="M 266.854474 295.8 
L 441.358949 295.8 
L 441.358949 10.8 
L 266.854474 10.8 
z
" style="fill:#ffffff;"/>
   </g>
   <g id="matplotlib.axis_3">
    <g id="xtick_5">
     <g id="line2d_13">
      <g>
       <use style="stroke:#000000;stroke-width:0.8;" x="274.786496" xlink:href="#m7e3a923dcc" y="295.8"/>
      </g>
     </g>
     <g id="text_12">
      <!-- 0 -->
      <g transform="translate(271.605246 310.398438)scale(0.1 -0.1)">
       <use xlink:href="#DejaVuSans-48"/>
      </g>
     </g>
    </g>
    <g id="xtick_6">
     <g id="line2d_14">
      <g>
       <use style="stroke:#000000;stroke-width:0.8;" x="321.445446" xlink:href="#m7e3a923dcc" y="295.8"/>
      </g>
     </g>
     <g id="text_13">
      <!-- 10 -->
      <g transform="translate(315.082946 310.398438)scale(0.1 -0.1)">
       <use xlink:href="#DejaVuSans-49"/>
       <use x="63.623047" xlink:href="#DejaVuSans-48"/>
      </g>
     </g>
    </g>
    <g id="xtick_7">
     <g id="line2d_15">
      <g>
       <use style="stroke:#000000;stroke-width:0.8;" x="368.104397" xlink:href="#m7e3a923dcc" y="295.8"/>
      </g>
     </g>
     <g id="text_14">
      <!-- 20 -->
      <g transform="translate(361.741897 310.398438)scale(0.1 -0.1)">
       <use xlink:href="#DejaVuSans-50"/>
       <use x="63.623047" xlink:href="#DejaVuSans-48"/>
      </g>
     </g>
    </g>
    <g id="xtick_8">
     <g id="line2d_16">
      <g>
       <use style="stroke:#000000;stroke-width:0.8;" x="414.763347" xlink:href="#m7e3a923dcc" y="295.8"/>
      </g>
     </g>
     <g id="text_15">
      <!-- 30 -->
      <g transform="translate(408.400847 310.398438)scale(0.1 -0.1)">
       <use xlink:href="#DejaVuSans-51"/>
       <use x="63.623047" xlink:href="#DejaVuSans-48"/>
      </g>
     </g>
    </g>
    <g id="text_16">
     <!-- Magnetic Field (mT) -->
     <defs>
      <path d="M 9.8125 72.90625 
L 24.515625 72.90625 
L 43.109375 23.296875 
L 61.8125 72.90625 
L 76.515625 72.90625 
L 76.515625 0 
L 66.890625 0 
L 66.890625 64.015625 
L 48.09375 14.015625 
L 38.1875 14.015625 
L 19.390625 64.015625 
L 19.390625 0 
L 9.8125 0 
z
" id="DejaVuSans-77"/>
      <path d="M 34.28125 27.484375 
Q 23.390625 27.484375 19.1875 25 
Q 14.984375 22.515625 14.984375 16.5 
Q 14.984375 11.71875 18.140625 8.90625 
Q 21.296875 6.109375 26.703125 6.109375 
Q 34.1875 6.109375 38.703125 11.40625 
Q 43.21875 16.703125 43.21875 25.484375 
L 43.21875 27.484375 
z
M 52.203125 31.203125 
L 52.203125 0 
L 43.21875 0 
L 43.21875 8.296875 
Q 40.140625 3.328125 35.546875 0.953125 
Q 30.953125 -1.421875 24.3125 -1.421875 
Q 15.921875 -1.421875 10.953125 3.296875 
Q 6 8.015625 6 15.921875 
Q 6 25.140625 12.171875 29.828125 
Q 18.359375 34.515625 30.609375 34.515625 
L 43.21875 34.515625 
L 43.21875 35.40625 
Q 43.21875 41.609375 39.140625 45 
Q 35.0625 48.390625 27.6875 48.390625 
Q 23 48.390625 18.546875 47.265625 
Q 14.109375 46.140625 10.015625 43.890625 
L 10.015625 52.203125 
Q 14.9375 54.109375 19.578125 55.046875 
Q 24.21875 56 28.609375 56 
Q 40.484375 56 46.34375 49.84375 
Q 52.203125 43.703125 52.203125 31.203125 
z
" id="DejaVuSans-97"/>
      <path d="M 9.421875 54.6875 
L 18.40625 54.6875 
L 18.40625 0 
L 9.421875 0 
z
M 9.421875 75.984375 
L 18.40625 75.984375 
L 18.40625 64.59375 
L 9.421875 64.59375 
z
" id="DejaVuSans-105"/>
      <path d="M 48.78125 52.59375 
L 48.78125 44.1875 
Q 44.96875 46.296875 41.140625 47.34375 
Q 37.3125 48.390625 33.40625 48.390625 
Q 24.65625 48.390625 19.8125 42.84375 
Q 14.984375 37.3125 14.984375 27.296875 
Q 14.984375 17.28125 19.8125 11.734375 
Q 24.65625 6.203125 33.40625 6.203125 
Q 37.3125 6.203125 41.140625 7.25 
Q 44.96875 8.296875 48.78125 10.40625 
L 48.78125 2.09375 
Q 45.015625 0.34375 40.984375 -0.53125 
Q 36.96875 -1.421875 32.421875 -1.421875 
Q 20.0625 -1.421875 12.78125 6.34375 
Q 5.515625 14.109375 5.515625 27.296875 
Q 5.515625 40.671875 12.859375 48.328125 
Q 20.21875 56 33.015625 56 
Q 37.15625 56 41.109375 55.140625 
Q 45.0625 54.296875 48.78125 52.59375 
z
" id="DejaVuSans-99"/>
      <path d="M 9.8125 72.90625 
L 51.703125 72.90625 
L 51.703125 64.59375 
L 19.671875 64.59375 
L 19.671875 43.109375 
L 48.578125 43.109375 
L 48.578125 34.8125 
L 19.671875 34.8125 
L 19.671875 0 
L 9.8125 0 
z
" id="DejaVuSans-70"/>
      <path d="M 52 44.1875 
Q 55.375 50.25 60.0625 53.125 
Q 64.75 56 71.09375 56 
Q 79.640625 56 84.28125 50.015625 
Q 88.921875 44.046875 88.921875 33.015625 
L 88.921875 0 
L 79.890625 0 
L 79.890625 32.71875 
Q 79.890625 40.578125 77.09375 44.375 
Q 74.3125 48.1875 68.609375 48.1875 
Q 61.625 48.1875 57.5625 43.546875 
Q 53.515625 38.921875 53.515625 30.90625 
L 53.515625 0 
L 44.484375 0 
L 44.484375 32.71875 
Q 44.484375 40.625 41.703125 44.40625 
Q 38.921875 48.1875 33.109375 48.1875 
Q 26.21875 48.1875 22.15625 43.53125 
Q 18.109375 38.875 18.109375 30.90625 
L 18.109375 0 
L 9.078125 0 
L 9.078125 54.6875 
L 18.109375 54.6875 
L 18.109375 46.1875 
Q 21.1875 51.21875 25.484375 53.609375 
Q 29.78125 56 35.6875 56 
Q 41.65625 56 45.828125 52.96875 
Q 50 49.953125 52 44.1875 
z
" id="DejaVuSans-109"/>
      <path d="M -0.296875 72.90625 
L 61.375 72.90625 
L 61.375 64.59375 
L 35.5 64.59375 
L 35.5 0 
L 25.59375 0 
L 25.59375 64.59375 
L -0.296875 64.59375 
z
" id="DejaVuSans-84"/>
     </defs>
     <g transform="translate(264.468118 330.155312)scale(0.18 -0.18)">
      <use xlink:href="#DejaVuSans-77"/>
      <use x="86.279297" xlink:href="#DejaVuSans-97"/>
      <use x="147.558594" xlink:href="#DejaVuSans-103"/>
      <use x="211.035156" xlink:href="#DejaVuSans-110"/>
      <use x="274.414062" xlink:href="#DejaVuSans-101"/>
      <use x="335.9375" xlink:href="#DejaVuSans-116"/>
      <use x="375.146484" xlink:href="#DejaVuSans-105"/>
      <use x="402.929688" xlink:href="#DejaVuSans-99"/>
      <use x="457.910156" xlink:href="#DejaVuSans-32"/>
      <use x="489.697266" xlink:href="#DejaVuSans-70"/>
      <use x="547.107422" xlink:href="#DejaVuSans-105"/>
      <use x="574.890625" xlink:href="#DejaVuSans-101"/>
      <use x="636.414062" xlink:href="#DejaVuSans-108"/>
      <use x="664.197266" xlink:href="#DejaVuSans-100"/>
      <use x="727.673828" xlink:href="#DejaVuSans-32"/>
      <use x="759.460938" xlink:href="#DejaVuSans-40"/>
      <use x="798.474609" xlink:href="#DejaVuSans-109"/>
      <use x="895.886719" xlink:href="#DejaVuSans-84"/>
      <use x="956.970703" xlink:href="#DejaVuSans-41"/>
     </g>
    </g>
   </g>
   <g id="matplotlib.axis_4">
    <g id="ytick_6">
     <g id="line2d_17">
      <g>
       <use style="stroke:#000000;stroke-width:0.8;" x="266.854474" xlink:href="#maf56f90f4a" y="256.936364"/>
      </g>
     </g>
     <g id="text_17">
      <!-- 0 -->
      <g transform="translate(253.491974 260.735582)scale(0.1 -0.1)">
       <use xlink:href="#DejaVuSans-48"/>
      </g>
     </g>
    </g>
    <g id="ytick_7">
     <g id="line2d_18">
      <g>
       <use style="stroke:#000000;stroke-width:0.8;" x="266.854474" xlink:href="#maf56f90f4a" y="205.118182"/>
      </g>
     </g>
     <g id="text_18">
      <!-- 1 -->
      <g transform="translate(253.491974 208.917401)scale(0.1 -0.1)">
       <use xlink:href="#DejaVuSans-49"/>
      </g>
     </g>
    </g>
    <g id="ytick_8">
     <g id="line2d_19">
      <g>
       <use style="stroke:#000000;stroke-width:0.8;" x="266.854474" xlink:href="#maf56f90f4a" y="153.3"/>
      </g>
     </g>
     <g id="text_19">
      <!-- 2 -->
      <g transform="translate(253.491974 157.099219)scale(0.1 -0.1)">
       <use xlink:href="#DejaVuSans-50"/>
      </g>
     </g>
    </g>
    <g id="ytick_9">
     <g id="line2d_20">
      <g>
       <use style="stroke:#000000;stroke-width:0.8;" x="266.854474" xlink:href="#maf56f90f4a" y="101.481818"/>
      </g>
     </g>
     <g id="text_20">
      <!-- 3 -->
      <g transform="translate(253.491974 105.281037)scale(0.1 -0.1)">
       <use xlink:href="#DejaVuSans-51"/>
      </g>
     </g>
    </g>
    <g id="ytick_10">
     <g id="line2d_21">
      <g>
       <use style="stroke:#000000;stroke-width:0.8;" x="266.854474" xlink:href="#maf56f90f4a" y="49.663636"/>
      </g>
     </g>
     <g id="text_21">
      <!-- 4 -->
      <g transform="translate(253.491974 53.462855)scale(0.1 -0.1)">
       <use xlink:href="#DejaVuSans-52"/>
      </g>
     </g>
    </g>
    <g id="text_22">
     <!-- Angle (degrees) -->
     <g transform="translate(245.748537 225.22125)rotate(-90)scale(0.18 -0.18)">
      <use xlink:href="#DejaVuSans-65"/>
      <use x="68.408203" xlink:href="#DejaVuSans-110"/>
      <use x="131.787109" xlink:href="#DejaVuSans-103"/>
      <use x="195.263672" xlink:href="#DejaVuSans-108"/>
      <use x="223.046875" xlink:href="#DejaVuSans-101"/>
      <use x="284.570312" xlink:href="#DejaVuSans-32"/>
      <use x="316.357422" xlink:href="#DejaVuSans-40"/>
      <use x="355.371094" xlink:href="#DejaVuSans-100"/>
      <use x="418.847656" xlink:href="#DejaVuSans-101"/>
      <use x="480.371094" xlink:href="#DejaVuSans-103"/>
      <use x="543.847656" xlink:href="#DejaVuSans-114"/>
      <use x="584.929688" xlink:href="#DejaVuSans-101"/>
      <use x="646.453125" xlink:href="#DejaVuSans-101"/>
      <use x="707.976562" xlink:href="#DejaVuSans-115"/>
      <use x="760.076172" xlink:href="#DejaVuSans-41"/>
     </g>
    </g>
   </g>
   <g id="LineCollection_2">
    <path clip-path="url(#p6a56f9bf4e)" d="M 274.786496 282.845455 
L 274.786496 231.027273 
" style="fill:none;stroke:#ff0000;stroke-width:1.5;"/>
    <path clip-path="url(#p6a56f9bf4e)" d="M 300.49782 282.845455 
L 300.49782 231.027273 
" style="fill:none;stroke:#ff0000;stroke-width:1.5;"/>
    <path clip-path="url(#p6a56f9bf4e)" d="M 327.663522 231.027273 
L 327.663522 179.209091 
" style="fill:none;stroke:#ff0000;stroke-width:1.5;"/>
    <path clip-path="url(#p6a56f9bf4e)" d="M 352.855425 179.209091 
L 352.855425 127.390909 
" style="fill:none;stroke:#ff0000;stroke-width:1.5;"/>
    <path clip-path="url(#p6a56f9bf4e)" d="M 379.034228 179.209091 
L 379.034228 127.390909 
" style="fill:none;stroke:#ff0000;stroke-width:1.5;"/>
    <path clip-path="url(#p6a56f9bf4e)" d="M 405.161088 127.390909 
L 405.161088 75.572727 
" style="fill:none;stroke:#ff0000;stroke-width:1.5;"/>
    <path clip-path="url(#p6a56f9bf4e)" d="M 430.56076 75.572727 
L 430.56076 23.754545 
" style="fill:none;stroke:#ff0000;stroke-width:1.5;"/>
   </g>
   <g id="line2d_22">
    <g clip-path="url(#p6a56f9bf4e)">
     <use style="fill:#ff0000;stroke:#ff0000;" x="274.786496" xlink:href="#m42dec3c3bc" y="282.845455"/>
     <use style="fill:#ff0000;stroke:#ff0000;" x="300.49782" xlink:href="#m42dec3c3bc" y="282.845455"/>
     <use style="fill:#ff0000;stroke:#ff0000;" x="327.663522" xlink:href="#m42dec3c3bc" y="231.027273"/>
     <use style="fill:#ff0000;stroke:#ff0000;" x="352.855425" xlink:href="#m42dec3c3bc" y="179.209091"/>
     <use style="fill:#ff0000;stroke:#ff0000;" x="379.034228" xlink:href="#m42dec3c3bc" y="179.209091"/>
     <use style="fill:#ff0000;stroke:#ff0000;" x="405.161088" xlink:href="#m42dec3c3bc" y="127.390909"/>
     <use style="fill:#ff0000;stroke:#ff0000;" x="430.56076" xlink:href="#m42dec3c3bc" y="75.572727"/>
    </g>
   </g>
   <g id="line2d_23">
    <g clip-path="url(#p6a56f9bf4e)">
     <use style="fill:#ff0000;stroke:#ff0000;" x="274.786496" xlink:href="#m42dec3c3bc" y="231.027273"/>
     <use style="fill:#ff0000;stroke:#ff0000;" x="300.49782" xlink:href="#m42dec3c3bc" y="231.027273"/>
     <use style="fill:#ff0000;stroke:#ff0000;" x="327.663522" xlink:href="#m42dec3c3bc" y="179.209091"/>
     <use style="fill:#ff0000;stroke:#ff0000;" x="352.855425" xlink:href="#m42dec3c3bc" y="127.390909"/>
     <use style="fill:#ff0000;stroke:#ff0000;" x="379.034228" xlink:href="#m42dec3c3bc" y="127.390909"/>
     <use style="fill:#ff0000;stroke:#ff0000;" x="405.161088" xlink:href="#m42dec3c3bc" y="75.572727"/>
     <use style="fill:#ff0000;stroke:#ff0000;" x="430.56076" xlink:href="#m42dec3c3bc" y="23.754545"/>
    </g>
   </g>
   <g id="line2d_24">
    <path clip-path="url(#p6a56f9bf4e)" d="M 274.786496 273.768547 
L 276.388925 271.601985 
L 277.991353 269.435424 
L 279.593782 267.268862 
L 281.19621 265.102301 
L 282.798639 262.935739 
L 284.401068 260.769178 
L 286.003496 258.602616 
L 287.605925 256.436055 
L 289.208353 254.269493 
L 290.810782 252.102932 
L 292.413211 249.93637 
L 294.015639 247.769809 
L 295.618068 245.603247 
L 297.220496 243.436686 
L 298.822925 241.270124 
L 300.425354 239.103563 
L 302.027782 236.937001 
L 303.630211 234.77044 
L 305.232639 232.603878 
L 306.835068 230.437317 
L 308.437497 228.270755 
L 310.039925 226.104194 
L 311.642354 223.937633 
L 313.244782 221.771071 
L 314.847211 219.60451 
L 316.44964 217.437948 
L 318.052068 215.271387 
L 319.654497 213.104825 
L 321.256925 210.938264 
L 322.859354 208.771702 
L 324.461783 206.605141 
L 326.064211 204.438579 
L 327.66664 202.272018 
L 329.269068 200.105456 
L 330.871497 197.938895 
L 332.473926 195.772333 
L 334.076354 193.605772 
L 335.678783 191.43921 
L 337.281211 189.272649 
L 338.88364 187.106087 
L 340.486069 184.939526 
L 342.088497 182.772964 
L 343.690926 180.606403 
L 345.293354 178.439841 
L 346.895783 176.27328 
L 348.498212 174.106718 
L 350.10064 171.940157 
L 351.703069 169.773595 
L 353.305497 167.607034 
L 354.907926 165.440473 
L 356.510355 163.273911 
L 358.112783 161.10735 
L 359.715212 158.940788 
L 361.31764 156.774227 
L 362.920069 154.607665 
L 364.522498 152.441104 
L 366.124926 150.274542 
L 367.727355 148.107981 
L 369.329783 145.941419 
L 370.932212 143.774858 
L 372.534641 141.608296 
L 374.137069 139.441735 
L 375.739498 137.275173 
L 377.341926 135.108612 
L 378.944355 132.94205 
L 380.546784 130.775489 
L 382.149212 128.608927 
L 383.751641 126.442366 
L 385.354069 124.275804 
L 386.956498 122.109243 
L 388.558927 119.942681 
L 390.161355 117.77612 
L 391.763784 115.609558 
L 393.366212 113.442997 
L 394.968641 111.276435 
L 396.57107 109.109874 
L 398.173498 106.943312 
L 399.775927 104.776751 
L 401.378355 102.61019 
L 402.980784 100.443628 
L 404.583213 98.277067 
L 406.185641 96.110505 
L 407.78807 93.943944 
L 409.390498 91.777382 
L 410.992927 89.610821 
L 412.595356 87.444259 
L 414.197784 85.277698 
L 415.800213 83.111136 
L 417.402641 80.944575 
L 419.00507 78.778013 
L 420.607499 76.611452 
L 422.209927 74.44489 
L 423.812356 72.278329 
L 425.414784 70.111767 
L 427.017213 67.945206 
L 428.619642 65.778644 
L 430.22207 63.612083 
L 431.824499 61.445521 
L 433.426927 59.27896 
" style="fill:none;stroke:#ffa500;stroke-linecap:square;stroke-width:1.5;"/>
   </g>
   <g id="line2d_25">
    <g clip-path="url(#p6a56f9bf4e)">
     <use style="fill:#0000ff;stroke:#0000ff;" x="274.786496" xlink:href="#m9ea1a517b0" y="256.936364"/>
     <use style="fill:#0000ff;stroke:#0000ff;" x="300.49782" xlink:href="#m9ea1a517b0" y="256.936364"/>
     <use style="fill:#0000ff;stroke:#0000ff;" x="327.663522" xlink:href="#m9ea1a517b0" y="205.118182"/>
     <use style="fill:#0000ff;stroke:#0000ff;" x="352.855425" xlink:href="#m9ea1a517b0" y="153.3"/>
     <use style="fill:#0000ff;stroke:#0000ff;" x="379.034228" xlink:href="#m9ea1a517b0" y="153.3"/>
     <use style="fill:#0000ff;stroke:#0000ff;" x="405.161088" xlink:href="#m9ea1a517b0" y="101.481818"/>
     <use style="fill:#0000ff;stroke:#0000ff;" x="430.56076" xlink:href="#m9ea1a517b0" y="49.663636"/>
    </g>
   </g>
   <g id="patch_8">
    <path d="M 266.854474 295.8 
L 266.854474 10.8 
" style="fill:none;stroke:#000000;stroke-linecap:square;stroke-linejoin:miter;stroke-width:0.8;"/>
   </g>
   <g id="patch_9">
    <path d="M 441.358949 295.8 
L 441.358949 10.8 
" style="fill:none;stroke:#000000;stroke-linecap:square;stroke-linejoin:miter;stroke-width:0.8;"/>
   </g>
   <g id="patch_10">
    <path d="M 266.854474 295.8 
L 441.358949 295.8 
" style="fill:none;stroke:#000000;stroke-linecap:square;stroke-linejoin:miter;stroke-width:0.8;"/>
   </g>
   <g id="patch_11">
    <path d="M 266.854474 10.8 
L 441.358949 10.8 
" style="fill:none;stroke:#000000;stroke-linecap:square;stroke-linejoin:miter;stroke-width:0.8;"/>
   </g>
   <g id="legend_1">
    <g id="patch_12">
     <path d="M 273.854474 48.15625 
L 329.731037 48.15625 
Q 331.731037 48.15625 331.731037 46.15625 
L 331.731037 17.8 
Q 331.731037 15.8 329.731037 15.8 
L 273.854474 15.8 
Q 271.854474 15.8 271.854474 17.8 
L 271.854474 46.15625 
Q 271.854474 48.15625 273.854474 48.15625 
z
" style="fill:#ffffff;opacity:0.8;stroke:#cccccc;stroke-linejoin:miter;"/>
    </g>
    <g id="line2d_26">
     <path d="M 275.854474 23.898438 
L 295.854474 23.898438 
" style="fill:none;stroke:#ffa500;stroke-linecap:square;stroke-width:1.5;"/>
    </g>
    <g id="line2d_27"/>
    <g id="text_23">
     <!-- Fit -->
     <g transform="translate(303.854474 27.398438)scale(0.1 -0.1)">
      <use xlink:href="#DejaVuSans-70"/>
      <use x="57.410156" xlink:href="#DejaVuSans-105"/>
      <use x="85.193359" xlink:href="#DejaVuSans-116"/>
     </g>
    </g>
    <g id="LineCollection_3">
     <path d="M 285.854474 43.576563 
L 285.854474 33.576563 
" style="fill:none;stroke:#ff0000;stroke-width:1.5;"/>
    </g>
    <g id="line2d_28">
     <g>
      <use style="fill:#ff0000;stroke:#ff0000;" x="285.854474" xlink:href="#m42dec3c3bc" y="43.576563"/>
     </g>
    </g>
    <g id="line2d_29">
     <g>
      <use style="fill:#ff0000;stroke:#ff0000;" x="285.854474" xlink:href="#m42dec3c3bc" y="33.576563"/>
     </g>
    </g>
    <g id="line2d_30"/>
    <g id="line2d_31">
     <g>
      <use style="fill:#0000ff;stroke:#0000ff;" x="285.854474" xlink:href="#m9ea1a517b0" y="38.576563"/>
     </g>
    </g>
    <g id="text_24">
     <!-- Data -->
     <defs>
      <path d="M 19.671875 64.796875 
L 19.671875 8.109375 
L 31.59375 8.109375 
Q 46.6875 8.109375 53.6875 14.9375 
Q 60.6875 21.78125 60.6875 36.53125 
Q 60.6875 51.171875 53.6875 57.984375 
Q 46.6875 64.796875 31.59375 64.796875 
z
M 9.8125 72.90625 
L 30.078125 72.90625 
Q 51.265625 72.90625 61.171875 64.09375 
Q 71.09375 55.28125 71.09375 36.53125 
Q 71.09375 17.671875 61.125 8.828125 
Q 51.171875 0 30.078125 0 
L 9.8125 0 
z
" id="DejaVuSans-68"/>
     </defs>
     <g transform="translate(303.854474 42.076563)scale(0.1 -0.1)">
      <use xlink:href="#DejaVuSans-68"/>
      <use x="77.001953" xlink:href="#DejaVuSans-97"/>
      <use x="138.28125" xlink:href="#DejaVuSans-116"/>
      <use x="177.490234" xlink:href="#DejaVuSans-97"/>
     </g>
    </g>
   </g>
  </g>
 </g>
 <defs>
  <clipPath id="p60584fe65c">
   <rect height="285" width="174.504474" x="46.175" y="10.8"/>
  </clipPath>
  <clipPath id="p6a56f9bf4e">
   <rect height="285" width="174.504474" x="266.854474" y="10.8"/>
  </clipPath>
 </defs>
</svg>
